<mxfile host="app.diagrams.net" modified="2023-03-24T00:56:43.815Z" agent="Mozilla/5.0 (Macintosh; Intel Mac OS X 10_15_7) AppleWebKit/537.36 (KHTML, like Gecko) Chrome/111.0.0.0 Safari/537.36" etag="S5qSUBUUKMKBZSy8Up3N" version="21.1.0" type="device" pages="5">
  <diagram id="q314IKs5yVFqoRma3xBS" name="nodeport">
    <mxGraphModel dx="1026" dy="733" grid="1" gridSize="10" guides="1" tooltips="1" connect="1" arrows="1" fold="1" page="1" pageScale="1" pageWidth="1169" pageHeight="827" math="0" shadow="0">
      <root>
        <mxCell id="0" />
        <mxCell id="1" parent="0" />
        <mxCell id="FBomMAN8Jf5Dhi8s2Y6T-1" value="pod1&lt;br&gt;10.0.0.32" style="rounded=0;whiteSpace=wrap;html=1;verticalAlign=top;labelPosition=center;verticalLabelPosition=middle;align=center;" parent="1" vertex="1">
          <mxGeometry x="320" y="100" width="200" height="120" as="geometry" />
        </mxCell>
        <mxCell id="FBomMAN8Jf5Dhi8s2Y6T-2" value="pod0&lt;br&gt;10.0.0.31" style="rounded=0;whiteSpace=wrap;html=1;verticalAlign=top;labelPosition=center;verticalLabelPosition=middle;align=center;" parent="1" vertex="1">
          <mxGeometry x="80" y="100" width="200" height="120" as="geometry" />
        </mxCell>
        <mxCell id="FBomMAN8Jf5Dhi8s2Y6T-3" value="node0&lt;br&gt;192.168.200.200" style="rounded=0;whiteSpace=wrap;html=1;align=left;verticalAlign=bottom;" parent="1" vertex="1">
          <mxGeometry x="80" y="260" width="440" height="180" as="geometry" />
        </mxCell>
        <mxCell id="FBomMAN8Jf5Dhi8s2Y6T-8" value="veth0" style="ellipse;whiteSpace=wrap;html=1;aspect=fixed;fontSize=12;" parent="1" vertex="1">
          <mxGeometry x="160" y="260" width="40" height="40" as="geometry" />
        </mxCell>
        <mxCell id="FBomMAN8Jf5Dhi8s2Y6T-10" value="eth0" style="ellipse;whiteSpace=wrap;html=1;aspect=fixed;fontSize=12;" parent="1" vertex="1">
          <mxGeometry x="160" y="180" width="40" height="40" as="geometry" />
        </mxCell>
        <mxCell id="FBomMAN8Jf5Dhi8s2Y6T-16" value="eth0" style="ellipse;whiteSpace=wrap;html=1;aspect=fixed;fontSize=12;" parent="1" vertex="1">
          <mxGeometry x="400" y="180" width="40" height="40" as="geometry" />
        </mxCell>
        <mxCell id="FBomMAN8Jf5Dhi8s2Y6T-19" value="veth1" style="ellipse;whiteSpace=wrap;html=1;aspect=fixed;fontSize=12;" parent="1" vertex="1">
          <mxGeometry x="400" y="260" width="40" height="40" as="geometry" />
        </mxCell>
        <mxCell id="FBomMAN8Jf5Dhi8s2Y6T-22" value="pod3&lt;br&gt;10.0.0.32" style="rounded=0;whiteSpace=wrap;html=1;verticalAlign=top;labelPosition=center;verticalLabelPosition=middle;align=center;" parent="1" vertex="1">
          <mxGeometry x="800" y="100" width="200" height="120" as="geometry" />
        </mxCell>
        <mxCell id="FBomMAN8Jf5Dhi8s2Y6T-23" value="pod2&lt;br&gt;10.0.0.31" style="rounded=0;whiteSpace=wrap;html=1;verticalAlign=top;labelPosition=center;verticalLabelPosition=middle;align=center;" parent="1" vertex="1">
          <mxGeometry x="560" y="100" width="200" height="120" as="geometry" />
        </mxCell>
        <mxCell id="FBomMAN8Jf5Dhi8s2Y6T-24" value="node0&lt;br&gt;192.168.200.201" style="rounded=0;whiteSpace=wrap;html=1;align=right;verticalAlign=bottom;" parent="1" vertex="1">
          <mxGeometry x="560" y="260" width="440" height="180" as="geometry" />
        </mxCell>
        <mxCell id="FBomMAN8Jf5Dhi8s2Y6T-27" value="veth0" style="ellipse;whiteSpace=wrap;html=1;aspect=fixed;fontSize=12;" parent="1" vertex="1">
          <mxGeometry x="640" y="260" width="40" height="40" as="geometry" />
        </mxCell>
        <mxCell id="FBomMAN8Jf5Dhi8s2Y6T-29" value="eth0" style="ellipse;whiteSpace=wrap;html=1;aspect=fixed;fontSize=12;" parent="1" vertex="1">
          <mxGeometry x="640" y="180" width="40" height="40" as="geometry" />
        </mxCell>
        <mxCell id="FBomMAN8Jf5Dhi8s2Y6T-31" value="eth0" style="ellipse;whiteSpace=wrap;html=1;aspect=fixed;fontSize=12;" parent="1" vertex="1">
          <mxGeometry x="880" y="180" width="40" height="40" as="geometry" />
        </mxCell>
        <mxCell id="SPAK4UqBrchZiauftiWV-8" style="edgeStyle=orthogonalEdgeStyle;shape=connector;rounded=0;orthogonalLoop=1;jettySize=auto;html=1;exitX=0.5;exitY=0;exitDx=0;exitDy=0;entryX=0.5;entryY=1;entryDx=0;entryDy=0;dashed=1;labelBackgroundColor=default;strokeColor=default;fontFamily=Helvetica;fontSize=11;fontColor=default;startArrow=classic;startFill=1;endArrow=classic;" parent="1" source="FBomMAN8Jf5Dhi8s2Y6T-34" target="FBomMAN8Jf5Dhi8s2Y6T-31" edge="1">
          <mxGeometry relative="1" as="geometry" />
        </mxCell>
        <mxCell id="FBomMAN8Jf5Dhi8s2Y6T-34" value="veth1" style="ellipse;whiteSpace=wrap;html=1;aspect=fixed;fontSize=12;" parent="1" vertex="1">
          <mxGeometry x="880" y="260" width="40" height="40" as="geometry" />
        </mxCell>
        <mxCell id="SPAK4UqBrchZiauftiWV-6" style="edgeStyle=orthogonalEdgeStyle;shape=connector;rounded=0;orthogonalLoop=1;jettySize=auto;html=1;exitX=0.75;exitY=1;exitDx=0;exitDy=0;entryX=0.5;entryY=1;entryDx=0;entryDy=0;dashed=1;labelBackgroundColor=default;strokeColor=default;fontFamily=Helvetica;fontSize=11;fontColor=default;startArrow=classic;startFill=1;endArrow=classic;" parent="1" source="FBomMAN8Jf5Dhi8s2Y6T-40" target="SPAK4UqBrchZiauftiWV-2" edge="1">
          <mxGeometry relative="1" as="geometry" />
        </mxCell>
        <mxCell id="FBomMAN8Jf5Dhi8s2Y6T-40" value="192.168.200.200&lt;br&gt;:31000" style="rounded=1;whiteSpace=wrap;html=1;" parent="1" vertex="1">
          <mxGeometry x="200" y="400" width="100" height="40" as="geometry" />
        </mxCell>
        <mxCell id="SPAK4UqBrchZiauftiWV-5" value="192.168.200.200:31000" style="edgeStyle=orthogonalEdgeStyle;shape=connector;rounded=0;orthogonalLoop=1;jettySize=auto;html=1;exitX=0.5;exitY=0;exitDx=0;exitDy=0;entryX=0.25;entryY=1;entryDx=0;entryDy=0;dashed=1;labelBackgroundColor=default;strokeColor=default;fontFamily=Helvetica;fontSize=11;fontColor=default;startArrow=classic;startFill=1;endArrow=classic;" parent="1" source="FBomMAN8Jf5Dhi8s2Y6T-41" target="FBomMAN8Jf5Dhi8s2Y6T-40" edge="1">
          <mxGeometry relative="1" as="geometry" />
        </mxCell>
        <mxCell id="FBomMAN8Jf5Dhi8s2Y6T-41" value="client0&lt;br&gt;192.168.1.80" style="rounded=0;whiteSpace=wrap;html=1;verticalAlign=bottom;labelPosition=center;verticalLabelPosition=middle;align=left;" parent="1" vertex="1">
          <mxGeometry x="80" y="480" width="160" height="80" as="geometry" />
        </mxCell>
        <mxCell id="SPAK4UqBrchZiauftiWV-7" style="edgeStyle=orthogonalEdgeStyle;shape=connector;rounded=0;orthogonalLoop=1;jettySize=auto;html=1;exitX=1;exitY=0.5;exitDx=0;exitDy=0;entryX=0.5;entryY=1;entryDx=0;entryDy=0;dashed=1;labelBackgroundColor=default;strokeColor=default;fontFamily=Helvetica;fontSize=11;fontColor=default;startArrow=classic;startFill=1;endArrow=classic;" parent="1" source="SPAK4UqBrchZiauftiWV-2" target="FBomMAN8Jf5Dhi8s2Y6T-34" edge="1">
          <mxGeometry relative="1" as="geometry" />
        </mxCell>
        <mxCell id="SPAK4UqBrchZiauftiWV-2" value="eth0" style="ellipse;whiteSpace=wrap;html=1;aspect=fixed;fontSize=12;" parent="1" vertex="1">
          <mxGeometry x="600" y="400" width="40" height="40" as="geometry" />
        </mxCell>
        <mxCell id="SPAK4UqBrchZiauftiWV-3" value="eth0" style="ellipse;whiteSpace=wrap;html=1;aspect=fixed;fontSize=12;" parent="1" vertex="1">
          <mxGeometry x="440" y="400" width="40" height="40" as="geometry" />
        </mxCell>
      </root>
    </mxGraphModel>
  </diagram>
  <diagram id="DHpwRXKbc-oIVeAKOnII" name="nodeport.dsr">
    <mxGraphModel dx="1026" dy="733" grid="1" gridSize="10" guides="1" tooltips="1" connect="1" arrows="1" fold="1" page="1" pageScale="1" pageWidth="1169" pageHeight="827" math="0" shadow="0">
      <root>
        <mxCell id="0" />
        <mxCell id="1" parent="0" />
        <mxCell id="6ym7c93Iqwxz1ApTce2h-1" value="pod1&lt;br&gt;10.0.0.32" style="rounded=0;whiteSpace=wrap;html=1;verticalAlign=top;labelPosition=center;verticalLabelPosition=middle;align=center;" parent="1" vertex="1">
          <mxGeometry x="320" y="100" width="200" height="120" as="geometry" />
        </mxCell>
        <mxCell id="6ym7c93Iqwxz1ApTce2h-2" value="pod0&lt;br&gt;10.0.0.31" style="rounded=0;whiteSpace=wrap;html=1;verticalAlign=top;labelPosition=center;verticalLabelPosition=middle;align=center;" parent="1" vertex="1">
          <mxGeometry x="80" y="100" width="200" height="120" as="geometry" />
        </mxCell>
        <mxCell id="6ym7c93Iqwxz1ApTce2h-3" value="node0&lt;br&gt;192.168.200.200" style="rounded=0;whiteSpace=wrap;html=1;align=left;verticalAlign=bottom;" parent="1" vertex="1">
          <mxGeometry x="80" y="260" width="440" height="180" as="geometry" />
        </mxCell>
        <mxCell id="6ym7c93Iqwxz1ApTce2h-4" value="veth0" style="ellipse;whiteSpace=wrap;html=1;aspect=fixed;fontSize=12;" parent="1" vertex="1">
          <mxGeometry x="160" y="260" width="40" height="40" as="geometry" />
        </mxCell>
        <mxCell id="6ym7c93Iqwxz1ApTce2h-5" value="eth0" style="ellipse;whiteSpace=wrap;html=1;aspect=fixed;fontSize=12;" parent="1" vertex="1">
          <mxGeometry x="160" y="180" width="40" height="40" as="geometry" />
        </mxCell>
        <mxCell id="6ym7c93Iqwxz1ApTce2h-6" value="eth0" style="ellipse;whiteSpace=wrap;html=1;aspect=fixed;fontSize=12;" parent="1" vertex="1">
          <mxGeometry x="400" y="180" width="40" height="40" as="geometry" />
        </mxCell>
        <mxCell id="6ym7c93Iqwxz1ApTce2h-7" value="veth1" style="ellipse;whiteSpace=wrap;html=1;aspect=fixed;fontSize=12;" parent="1" vertex="1">
          <mxGeometry x="400" y="260" width="40" height="40" as="geometry" />
        </mxCell>
        <mxCell id="6ym7c93Iqwxz1ApTce2h-8" value="pod3&lt;br&gt;10.0.0.32" style="rounded=0;whiteSpace=wrap;html=1;verticalAlign=top;labelPosition=center;verticalLabelPosition=middle;align=center;" parent="1" vertex="1">
          <mxGeometry x="800" y="100" width="200" height="120" as="geometry" />
        </mxCell>
        <mxCell id="6ym7c93Iqwxz1ApTce2h-9" value="pod2&lt;br&gt;10.0.0.31" style="rounded=0;whiteSpace=wrap;html=1;verticalAlign=top;labelPosition=center;verticalLabelPosition=middle;align=center;" parent="1" vertex="1">
          <mxGeometry x="560" y="100" width="200" height="120" as="geometry" />
        </mxCell>
        <mxCell id="6ym7c93Iqwxz1ApTce2h-10" value="node0&lt;br&gt;192.168.200.201" style="rounded=0;whiteSpace=wrap;html=1;align=right;verticalAlign=bottom;" parent="1" vertex="1">
          <mxGeometry x="560" y="260" width="440" height="180" as="geometry" />
        </mxCell>
        <mxCell id="6ym7c93Iqwxz1ApTce2h-11" value="veth0" style="ellipse;whiteSpace=wrap;html=1;aspect=fixed;fontSize=12;" parent="1" vertex="1">
          <mxGeometry x="640" y="260" width="40" height="40" as="geometry" />
        </mxCell>
        <mxCell id="6ym7c93Iqwxz1ApTce2h-12" value="eth0" style="ellipse;whiteSpace=wrap;html=1;aspect=fixed;fontSize=12;" parent="1" vertex="1">
          <mxGeometry x="640" y="180" width="40" height="40" as="geometry" />
        </mxCell>
        <mxCell id="6ym7c93Iqwxz1ApTce2h-13" value="eth0" style="ellipse;whiteSpace=wrap;html=1;aspect=fixed;fontSize=12;" parent="1" vertex="1">
          <mxGeometry x="880" y="180" width="40" height="40" as="geometry" />
        </mxCell>
        <mxCell id="6ym7c93Iqwxz1ApTce2h-14" style="edgeStyle=orthogonalEdgeStyle;shape=connector;rounded=0;orthogonalLoop=1;jettySize=auto;html=1;exitX=0.5;exitY=0;exitDx=0;exitDy=0;entryX=0.5;entryY=1;entryDx=0;entryDy=0;dashed=1;labelBackgroundColor=default;strokeColor=default;fontFamily=Helvetica;fontSize=11;fontColor=default;startArrow=classic;startFill=1;endArrow=classic;" parent="1" source="6ym7c93Iqwxz1ApTce2h-15" target="6ym7c93Iqwxz1ApTce2h-13" edge="1">
          <mxGeometry relative="1" as="geometry" />
        </mxCell>
        <mxCell id="6ym7c93Iqwxz1ApTce2h-15" value="veth1" style="ellipse;whiteSpace=wrap;html=1;aspect=fixed;fontSize=12;" parent="1" vertex="1">
          <mxGeometry x="880" y="260" width="40" height="40" as="geometry" />
        </mxCell>
        <mxCell id="6ym7c93Iqwxz1ApTce2h-24" style="edgeStyle=orthogonalEdgeStyle;shape=connector;rounded=0;orthogonalLoop=1;jettySize=auto;html=1;exitX=0.75;exitY=1;exitDx=0;exitDy=0;entryX=0;entryY=1;entryDx=0;entryDy=0;dashed=1;labelBackgroundColor=default;strokeColor=default;fontFamily=Helvetica;fontSize=11;fontColor=default;startArrow=oval;startFill=1;endArrow=classic;" parent="1" source="6ym7c93Iqwxz1ApTce2h-17" target="6ym7c93Iqwxz1ApTce2h-21" edge="1">
          <mxGeometry relative="1" as="geometry">
            <Array as="points">
              <mxPoint x="275" y="460" />
              <mxPoint x="606" y="460" />
            </Array>
          </mxGeometry>
        </mxCell>
        <mxCell id="6ym7c93Iqwxz1ApTce2h-17" value="192.168.200.200&lt;br&gt;:31000" style="rounded=1;whiteSpace=wrap;html=1;" parent="1" vertex="1">
          <mxGeometry x="200" y="400" width="100" height="40" as="geometry" />
        </mxCell>
        <mxCell id="6ym7c93Iqwxz1ApTce2h-18" value="192.168.200.200:31000" style="edgeStyle=orthogonalEdgeStyle;shape=connector;rounded=0;orthogonalLoop=1;jettySize=auto;html=1;exitX=0.5;exitY=0;exitDx=0;exitDy=0;entryX=0.25;entryY=1;entryDx=0;entryDy=0;dashed=1;labelBackgroundColor=default;strokeColor=default;fontFamily=Helvetica;fontSize=11;fontColor=default;startArrow=oval;startFill=1;endArrow=classic;" parent="1" source="6ym7c93Iqwxz1ApTce2h-19" target="6ym7c93Iqwxz1ApTce2h-17" edge="1">
          <mxGeometry relative="1" as="geometry" />
        </mxCell>
        <mxCell id="6ym7c93Iqwxz1ApTce2h-19" value="client0&lt;br&gt;192.168.1.80" style="rounded=0;whiteSpace=wrap;html=1;verticalAlign=bottom;labelPosition=center;verticalLabelPosition=middle;align=left;" parent="1" vertex="1">
          <mxGeometry x="80" y="480" width="160" height="80" as="geometry" />
        </mxCell>
        <mxCell id="6ym7c93Iqwxz1ApTce2h-20" style="edgeStyle=orthogonalEdgeStyle;shape=connector;rounded=0;orthogonalLoop=1;jettySize=auto;html=1;exitX=1;exitY=0.5;exitDx=0;exitDy=0;entryX=0.5;entryY=1;entryDx=0;entryDy=0;dashed=1;labelBackgroundColor=default;strokeColor=default;fontFamily=Helvetica;fontSize=11;fontColor=default;startArrow=classic;startFill=1;endArrow=classic;" parent="1" source="6ym7c93Iqwxz1ApTce2h-21" target="6ym7c93Iqwxz1ApTce2h-15" edge="1">
          <mxGeometry relative="1" as="geometry" />
        </mxCell>
        <mxCell id="6ym7c93Iqwxz1ApTce2h-25" value="from 192.168.200.200:31000" style="edgeStyle=orthogonalEdgeStyle;shape=connector;rounded=0;orthogonalLoop=1;jettySize=auto;html=1;exitX=1;exitY=1;exitDx=0;exitDy=0;entryX=1;entryY=0.5;entryDx=0;entryDy=0;dashed=1;labelBackgroundColor=default;strokeColor=default;fontFamily=Helvetica;fontSize=11;fontColor=default;startArrow=oval;startFill=1;endArrow=classic;" parent="1" source="6ym7c93Iqwxz1ApTce2h-21" target="6ym7c93Iqwxz1ApTce2h-19" edge="1">
          <mxGeometry relative="1" as="geometry">
            <Array as="points">
              <mxPoint x="634" y="520" />
            </Array>
          </mxGeometry>
        </mxCell>
        <mxCell id="6ym7c93Iqwxz1ApTce2h-21" value="eth0" style="ellipse;whiteSpace=wrap;html=1;aspect=fixed;fontSize=12;" parent="1" vertex="1">
          <mxGeometry x="600" y="400" width="40" height="40" as="geometry" />
        </mxCell>
        <mxCell id="6ym7c93Iqwxz1ApTce2h-22" value="eth0" style="ellipse;whiteSpace=wrap;html=1;aspect=fixed;fontSize=12;" parent="1" vertex="1">
          <mxGeometry x="440" y="400" width="40" height="40" as="geometry" />
        </mxCell>
      </root>
    </mxGraphModel>
  </diagram>
  <diagram id="CwZyJr0p9d5PnwDxGcks" name="loadbalancer">
    <mxGraphModel dx="1026" dy="733" grid="1" gridSize="10" guides="1" tooltips="1" connect="1" arrows="1" fold="1" page="1" pageScale="1" pageWidth="1169" pageHeight="827" math="0" shadow="0">
      <root>
        <mxCell id="0" />
        <mxCell id="1" parent="0" />
        <mxCell id="Q45LJInef-0NdFdtlzi4-1" value="pod1&lt;br&gt;10.0.0.32" style="rounded=0;whiteSpace=wrap;html=1;verticalAlign=top;labelPosition=center;verticalLabelPosition=middle;align=center;" parent="1" vertex="1">
          <mxGeometry x="320" y="100" width="200" height="120" as="geometry" />
        </mxCell>
        <mxCell id="Q45LJInef-0NdFdtlzi4-2" value="pod0&lt;br&gt;10.0.0.31" style="rounded=0;whiteSpace=wrap;html=1;verticalAlign=top;labelPosition=center;verticalLabelPosition=middle;align=center;" parent="1" vertex="1">
          <mxGeometry x="80" y="100" width="200" height="120" as="geometry" />
        </mxCell>
        <mxCell id="Q45LJInef-0NdFdtlzi4-3" value="node0&lt;br&gt;192.168.200.200" style="rounded=0;whiteSpace=wrap;html=1;align=left;verticalAlign=bottom;" parent="1" vertex="1">
          <mxGeometry x="80" y="260" width="440" height="180" as="geometry" />
        </mxCell>
        <mxCell id="Q45LJInef-0NdFdtlzi4-4" value="veth0" style="ellipse;whiteSpace=wrap;html=1;aspect=fixed;fontSize=12;" parent="1" vertex="1">
          <mxGeometry x="160" y="260" width="40" height="40" as="geometry" />
        </mxCell>
        <mxCell id="Q45LJInef-0NdFdtlzi4-5" value="eth0" style="ellipse;whiteSpace=wrap;html=1;aspect=fixed;fontSize=12;" parent="1" vertex="1">
          <mxGeometry x="160" y="180" width="40" height="40" as="geometry" />
        </mxCell>
        <mxCell id="Q45LJInef-0NdFdtlzi4-6" value="eth0" style="ellipse;whiteSpace=wrap;html=1;aspect=fixed;fontSize=12;" parent="1" vertex="1">
          <mxGeometry x="400" y="180" width="40" height="40" as="geometry" />
        </mxCell>
        <mxCell id="Q45LJInef-0NdFdtlzi4-7" value="veth1" style="ellipse;whiteSpace=wrap;html=1;aspect=fixed;fontSize=12;" parent="1" vertex="1">
          <mxGeometry x="400" y="260" width="40" height="40" as="geometry" />
        </mxCell>
        <mxCell id="Q45LJInef-0NdFdtlzi4-8" value="pod3&lt;br&gt;10.0.0.32" style="rounded=0;whiteSpace=wrap;html=1;verticalAlign=top;labelPosition=center;verticalLabelPosition=middle;align=center;" parent="1" vertex="1">
          <mxGeometry x="800" y="100" width="200" height="120" as="geometry" />
        </mxCell>
        <mxCell id="Q45LJInef-0NdFdtlzi4-9" value="pod2&lt;br&gt;10.0.0.31" style="rounded=0;whiteSpace=wrap;html=1;verticalAlign=top;labelPosition=center;verticalLabelPosition=middle;align=center;" parent="1" vertex="1">
          <mxGeometry x="560" y="100" width="200" height="120" as="geometry" />
        </mxCell>
        <mxCell id="Q45LJInef-0NdFdtlzi4-10" value="node0&lt;br&gt;192.168.200.201" style="rounded=0;whiteSpace=wrap;html=1;align=right;verticalAlign=bottom;" parent="1" vertex="1">
          <mxGeometry x="560" y="260" width="440" height="180" as="geometry" />
        </mxCell>
        <mxCell id="Q45LJInef-0NdFdtlzi4-11" value="veth0" style="ellipse;whiteSpace=wrap;html=1;aspect=fixed;fontSize=12;" parent="1" vertex="1">
          <mxGeometry x="640" y="260" width="40" height="40" as="geometry" />
        </mxCell>
        <mxCell id="Q45LJInef-0NdFdtlzi4-12" value="eth0" style="ellipse;whiteSpace=wrap;html=1;aspect=fixed;fontSize=12;" parent="1" vertex="1">
          <mxGeometry x="640" y="180" width="40" height="40" as="geometry" />
        </mxCell>
        <mxCell id="Q45LJInef-0NdFdtlzi4-13" value="eth0" style="ellipse;whiteSpace=wrap;html=1;aspect=fixed;fontSize=12;" parent="1" vertex="1">
          <mxGeometry x="880" y="180" width="40" height="40" as="geometry" />
        </mxCell>
        <mxCell id="Q45LJInef-0NdFdtlzi4-14" style="edgeStyle=orthogonalEdgeStyle;shape=connector;rounded=0;orthogonalLoop=1;jettySize=auto;html=1;exitX=0.5;exitY=0;exitDx=0;exitDy=0;entryX=0.5;entryY=1;entryDx=0;entryDy=0;dashed=1;labelBackgroundColor=default;strokeColor=default;fontFamily=Helvetica;fontSize=11;fontColor=default;startArrow=oval;startFill=1;endArrow=classic;" parent="1" source="Q45LJInef-0NdFdtlzi4-15" target="Q45LJInef-0NdFdtlzi4-13" edge="1">
          <mxGeometry relative="1" as="geometry" />
        </mxCell>
        <mxCell id="Q45LJInef-0NdFdtlzi4-15" value="veth1" style="ellipse;whiteSpace=wrap;html=1;aspect=fixed;fontSize=12;" parent="1" vertex="1">
          <mxGeometry x="880" y="260" width="40" height="40" as="geometry" />
        </mxCell>
        <mxCell id="Q45LJInef-0NdFdtlzi4-24" value="192.168.200.240:80" style="edgeStyle=orthogonalEdgeStyle;rounded=0;orthogonalLoop=1;jettySize=auto;html=1;exitX=1;exitY=0.5;exitDx=0;exitDy=0;dashed=1;startArrow=oval;startFill=1;" parent="1" source="Q45LJInef-0NdFdtlzi4-19" target="Q45LJInef-0NdFdtlzi4-23" edge="1">
          <mxGeometry relative="1" as="geometry" />
        </mxCell>
        <mxCell id="Q45LJInef-0NdFdtlzi4-19" value="client0&lt;br&gt;192.168.1.80" style="rounded=0;whiteSpace=wrap;html=1;verticalAlign=bottom;labelPosition=center;verticalLabelPosition=middle;align=left;" parent="1" vertex="1">
          <mxGeometry x="80" y="480" width="160" height="80" as="geometry" />
        </mxCell>
        <mxCell id="Q45LJInef-0NdFdtlzi4-21" value="eth0" style="ellipse;whiteSpace=wrap;html=1;aspect=fixed;fontSize=12;" parent="1" vertex="1">
          <mxGeometry x="600" y="400" width="40" height="40" as="geometry" />
        </mxCell>
        <mxCell id="Q45LJInef-0NdFdtlzi4-22" value="eth0" style="ellipse;whiteSpace=wrap;html=1;aspect=fixed;fontSize=12;" parent="1" vertex="1">
          <mxGeometry x="440" y="400" width="40" height="40" as="geometry" />
        </mxCell>
        <mxCell id="Q45LJInef-0NdFdtlzi4-25" style="edgeStyle=orthogonalEdgeStyle;shape=connector;rounded=0;orthogonalLoop=1;jettySize=auto;html=1;exitX=0.5;exitY=0;exitDx=0;exitDy=0;entryX=0.5;entryY=1;entryDx=0;entryDy=0;dashed=1;labelBackgroundColor=default;strokeColor=default;fontFamily=Helvetica;fontSize=11;fontColor=default;startArrow=oval;startFill=1;endArrow=classic;" parent="1" source="Q45LJInef-0NdFdtlzi4-23" target="Q45LJInef-0NdFdtlzi4-15" edge="1">
          <mxGeometry relative="1" as="geometry" />
        </mxCell>
        <mxCell id="Q45LJInef-0NdFdtlzi4-23" value="192.168.200.240&lt;br&gt;:80" style="rounded=1;whiteSpace=wrap;html=1;" parent="1" vertex="1">
          <mxGeometry x="780" y="400" width="100" height="40" as="geometry" />
        </mxCell>
      </root>
    </mxGraphModel>
  </diagram>
  <diagram id="ql40SbJs9FB_6Jrjm0mv" name="metallb.l2">
    <mxGraphModel dx="1026" dy="733" grid="1" gridSize="10" guides="1" tooltips="1" connect="1" arrows="1" fold="1" page="1" pageScale="1" pageWidth="1169" pageHeight="827" math="0" shadow="0">
      <root>
        <mxCell id="0" />
        <mxCell id="1" parent="0" />
        <mxCell id="G3T5zsKhkdMw-pD8ZwrE-1" value="pod1&lt;br&gt;10.0.0.32" style="rounded=0;whiteSpace=wrap;html=1;verticalAlign=top;labelPosition=center;verticalLabelPosition=middle;align=center;" parent="1" vertex="1">
          <mxGeometry x="320" y="100" width="200" height="120" as="geometry" />
        </mxCell>
        <mxCell id="G3T5zsKhkdMw-pD8ZwrE-2" value="pod0&lt;br&gt;10.0.0.31" style="rounded=0;whiteSpace=wrap;html=1;verticalAlign=top;labelPosition=center;verticalLabelPosition=middle;align=center;" parent="1" vertex="1">
          <mxGeometry x="80" y="100" width="200" height="120" as="geometry" />
        </mxCell>
        <mxCell id="G3T5zsKhkdMw-pD8ZwrE-3" value="node0&lt;br&gt;192.168.200.200" style="rounded=0;whiteSpace=wrap;html=1;align=left;verticalAlign=bottom;" parent="1" vertex="1">
          <mxGeometry x="80" y="260" width="440" height="180" as="geometry" />
        </mxCell>
        <mxCell id="G3T5zsKhkdMw-pD8ZwrE-4" value="veth0" style="ellipse;whiteSpace=wrap;html=1;aspect=fixed;fontSize=12;" parent="1" vertex="1">
          <mxGeometry x="160" y="260" width="40" height="40" as="geometry" />
        </mxCell>
        <mxCell id="G3T5zsKhkdMw-pD8ZwrE-5" value="eth0" style="ellipse;whiteSpace=wrap;html=1;aspect=fixed;fontSize=12;" parent="1" vertex="1">
          <mxGeometry x="160" y="180" width="40" height="40" as="geometry" />
        </mxCell>
        <mxCell id="G3T5zsKhkdMw-pD8ZwrE-6" value="eth0" style="ellipse;whiteSpace=wrap;html=1;aspect=fixed;fontSize=12;" parent="1" vertex="1">
          <mxGeometry x="400" y="180" width="40" height="40" as="geometry" />
        </mxCell>
        <mxCell id="G3T5zsKhkdMw-pD8ZwrE-7" value="veth1" style="ellipse;whiteSpace=wrap;html=1;aspect=fixed;fontSize=12;" parent="1" vertex="1">
          <mxGeometry x="400" y="260" width="40" height="40" as="geometry" />
        </mxCell>
        <mxCell id="G3T5zsKhkdMw-pD8ZwrE-8" value="pod3&lt;br&gt;10.0.0.32" style="rounded=0;whiteSpace=wrap;html=1;verticalAlign=top;labelPosition=center;verticalLabelPosition=middle;align=center;" parent="1" vertex="1">
          <mxGeometry x="800" y="100" width="200" height="120" as="geometry" />
        </mxCell>
        <mxCell id="G3T5zsKhkdMw-pD8ZwrE-9" value="pod2&lt;br&gt;10.0.0.31" style="rounded=0;whiteSpace=wrap;html=1;verticalAlign=top;labelPosition=center;verticalLabelPosition=middle;align=center;" parent="1" vertex="1">
          <mxGeometry x="560" y="100" width="200" height="120" as="geometry" />
        </mxCell>
        <mxCell id="G3T5zsKhkdMw-pD8ZwrE-10" value="node0&lt;br&gt;192.168.200.201" style="rounded=0;whiteSpace=wrap;html=1;align=right;verticalAlign=bottom;" parent="1" vertex="1">
          <mxGeometry x="560" y="260" width="440" height="180" as="geometry" />
        </mxCell>
        <mxCell id="G3T5zsKhkdMw-pD8ZwrE-11" value="veth0" style="ellipse;whiteSpace=wrap;html=1;aspect=fixed;fontSize=12;" parent="1" vertex="1">
          <mxGeometry x="640" y="260" width="40" height="40" as="geometry" />
        </mxCell>
        <mxCell id="G3T5zsKhkdMw-pD8ZwrE-12" value="eth0" style="ellipse;whiteSpace=wrap;html=1;aspect=fixed;fontSize=12;" parent="1" vertex="1">
          <mxGeometry x="640" y="180" width="40" height="40" as="geometry" />
        </mxCell>
        <mxCell id="G3T5zsKhkdMw-pD8ZwrE-13" value="eth0" style="ellipse;whiteSpace=wrap;html=1;aspect=fixed;fontSize=12;" parent="1" vertex="1">
          <mxGeometry x="880" y="180" width="40" height="40" as="geometry" />
        </mxCell>
        <mxCell id="G3T5zsKhkdMw-pD8ZwrE-14" style="edgeStyle=orthogonalEdgeStyle;shape=connector;rounded=0;orthogonalLoop=1;jettySize=auto;html=1;exitX=0.5;exitY=0;exitDx=0;exitDy=0;entryX=0.5;entryY=1;entryDx=0;entryDy=0;dashed=1;labelBackgroundColor=default;strokeColor=default;fontFamily=Helvetica;fontSize=11;fontColor=default;startArrow=oval;startFill=1;endArrow=classic;" parent="1" source="G3T5zsKhkdMw-pD8ZwrE-15" target="G3T5zsKhkdMw-pD8ZwrE-13" edge="1">
          <mxGeometry relative="1" as="geometry" />
        </mxCell>
        <mxCell id="G3T5zsKhkdMw-pD8ZwrE-15" value="veth1" style="ellipse;whiteSpace=wrap;html=1;aspect=fixed;fontSize=12;" parent="1" vertex="1">
          <mxGeometry x="880" y="260" width="40" height="40" as="geometry" />
        </mxCell>
        <mxCell id="G3T5zsKhkdMw-pD8ZwrE-17" value="192.168.200.240:80" style="edgeStyle=orthogonalEdgeStyle;rounded=0;orthogonalLoop=1;jettySize=auto;html=1;exitX=1;exitY=0.5;exitDx=0;exitDy=0;dashed=1;startArrow=oval;startFill=1;" parent="1" source="G3T5zsKhkdMw-pD8ZwrE-18" target="G3T5zsKhkdMw-pD8ZwrE-22" edge="1">
          <mxGeometry relative="1" as="geometry" />
        </mxCell>
        <mxCell id="G3T5zsKhkdMw-pD8ZwrE-18" value="client0&lt;br&gt;192.168.1.80" style="rounded=0;whiteSpace=wrap;html=1;verticalAlign=bottom;labelPosition=center;verticalLabelPosition=middle;align=left;" parent="1" vertex="1">
          <mxGeometry x="80" y="480" width="160" height="80" as="geometry" />
        </mxCell>
        <mxCell id="G3T5zsKhkdMw-pD8ZwrE-19" value="eth0" style="ellipse;whiteSpace=wrap;html=1;aspect=fixed;fontSize=12;" parent="1" vertex="1">
          <mxGeometry x="600" y="400" width="40" height="40" as="geometry" />
        </mxCell>
        <mxCell id="G3T5zsKhkdMw-pD8ZwrE-20" value="eth0" style="ellipse;whiteSpace=wrap;html=1;aspect=fixed;fontSize=12;" parent="1" vertex="1">
          <mxGeometry x="440" y="400" width="40" height="40" as="geometry" />
        </mxCell>
        <mxCell id="G3T5zsKhkdMw-pD8ZwrE-21" style="edgeStyle=orthogonalEdgeStyle;shape=connector;rounded=0;orthogonalLoop=1;jettySize=auto;html=1;exitX=0.5;exitY=0;exitDx=0;exitDy=0;entryX=0.5;entryY=1;entryDx=0;entryDy=0;dashed=1;labelBackgroundColor=default;strokeColor=default;fontFamily=Helvetica;fontSize=11;fontColor=default;startArrow=oval;startFill=1;endArrow=classic;" parent="1" source="G3T5zsKhkdMw-pD8ZwrE-22" target="G3T5zsKhkdMw-pD8ZwrE-15" edge="1">
          <mxGeometry relative="1" as="geometry" />
        </mxCell>
        <mxCell id="G3T5zsKhkdMw-pD8ZwrE-22" value="192.168.200.240&lt;br&gt;:80" style="rounded=1;whiteSpace=wrap;html=1;" parent="1" vertex="1">
          <mxGeometry x="780" y="400" width="100" height="40" as="geometry" />
        </mxCell>
        <mxCell id="rUteJcreb7CIRSlgB9sr-1" value="f4:6b:8c:82:42:33" style="rounded=1;whiteSpace=wrap;html=1;fillColor=none;strokeColor=none;" parent="1" vertex="1">
          <mxGeometry x="400" y="380" width="120" height="20" as="geometry" />
        </mxCell>
        <mxCell id="rUteJcreb7CIRSlgB9sr-2" value="f4:6b:8c:82:42:2b" style="rounded=1;whiteSpace=wrap;html=1;fillColor=none;strokeColor=none;" parent="1" vertex="1">
          <mxGeometry x="560" y="380" width="120" height="20" as="geometry" />
        </mxCell>
        <mxCell id="JffAPrOHA8J5OLNRxr6Y-1" value="192.168.200.240 -&amp;gt; f4:6b:8c:82:42:2b" style="rounded=1;whiteSpace=wrap;html=1;fillColor=none;strokeColor=default;align=center;dashed=1;" parent="1" vertex="1">
          <mxGeometry x="90" y="490" width="140" height="30" as="geometry" />
        </mxCell>
        <mxCell id="pUCzvmMyC_dtoKJfxnWE-1" value="ARP Response (192.168.200.240 -&amp;gt;&amp;nbsp;f4:6b:8c:82:42:2b)" style="edgeStyle=orthogonalEdgeStyle;rounded=0;orthogonalLoop=1;jettySize=auto;html=1;exitX=0.5;exitY=1;exitDx=0;exitDy=0;entryX=0.5;entryY=0;entryDx=0;entryDy=0;dashed=1;startArrow=oval;startFill=1;" parent="1" source="ceo1WqAyGkFlxYr7SCW_-1" target="JffAPrOHA8J5OLNRxr6Y-1" edge="1">
          <mxGeometry relative="1" as="geometry" />
        </mxCell>
        <mxCell id="ceo1WqAyGkFlxYr7SCW_-1" value="Speaker&lt;br&gt;(MetalLB)" style="rounded=0;whiteSpace=wrap;html=1;verticalAlign=top;labelPosition=center;verticalLabelPosition=middle;align=center;" parent="1" vertex="1">
          <mxGeometry x="680" y="400" width="80" height="40" as="geometry" />
        </mxCell>
        <mxCell id="ceo1WqAyGkFlxYr7SCW_-2" value="Speaker&lt;br&gt;(MetalLB)" style="rounded=0;whiteSpace=wrap;html=1;verticalAlign=top;labelPosition=center;verticalLabelPosition=middle;align=center;" parent="1" vertex="1">
          <mxGeometry x="320" y="400" width="80" height="40" as="geometry" />
        </mxCell>
      </root>
    </mxGraphModel>
  </diagram>
  <diagram id="GMNJA7TcQTVTGkZ_-ceG" name="metallb.bgp">
    <mxGraphModel dx="1026" dy="733" grid="1" gridSize="10" guides="1" tooltips="1" connect="1" arrows="1" fold="1" page="1" pageScale="1" pageWidth="1169" pageHeight="827" math="0" shadow="0">
      <root>
        <mxCell id="0" />
        <mxCell id="1" parent="0" />
        <mxCell id="Fl9HjCLfGaTyQj4dO3fx-1" value="pod1&lt;br&gt;10.0.0.32" style="rounded=0;whiteSpace=wrap;html=1;verticalAlign=top;labelPosition=center;verticalLabelPosition=middle;align=center;" parent="1" vertex="1">
          <mxGeometry x="320" y="100" width="200" height="120" as="geometry" />
        </mxCell>
        <mxCell id="Fl9HjCLfGaTyQj4dO3fx-2" value="pod0&lt;br&gt;10.0.0.31" style="rounded=0;whiteSpace=wrap;html=1;verticalAlign=top;labelPosition=center;verticalLabelPosition=middle;align=center;" parent="1" vertex="1">
          <mxGeometry x="80" y="100" width="200" height="120" as="geometry" />
        </mxCell>
        <mxCell id="Fl9HjCLfGaTyQj4dO3fx-3" value="node0&lt;br&gt;192.168.200.200" style="rounded=0;whiteSpace=wrap;html=1;align=left;verticalAlign=bottom;" parent="1" vertex="1">
          <mxGeometry x="80" y="260" width="440" height="180" as="geometry" />
        </mxCell>
        <mxCell id="Fl9HjCLfGaTyQj4dO3fx-4" value="veth0" style="ellipse;whiteSpace=wrap;html=1;aspect=fixed;fontSize=12;" parent="1" vertex="1">
          <mxGeometry x="160" y="260" width="40" height="40" as="geometry" />
        </mxCell>
        <mxCell id="Fl9HjCLfGaTyQj4dO3fx-5" value="eth0" style="ellipse;whiteSpace=wrap;html=1;aspect=fixed;fontSize=12;" parent="1" vertex="1">
          <mxGeometry x="160" y="180" width="40" height="40" as="geometry" />
        </mxCell>
        <mxCell id="Fl9HjCLfGaTyQj4dO3fx-6" value="eth0" style="ellipse;whiteSpace=wrap;html=1;aspect=fixed;fontSize=12;" parent="1" vertex="1">
          <mxGeometry x="400" y="180" width="40" height="40" as="geometry" />
        </mxCell>
        <mxCell id="Fl9HjCLfGaTyQj4dO3fx-7" value="veth1" style="ellipse;whiteSpace=wrap;html=1;aspect=fixed;fontSize=12;" parent="1" vertex="1">
          <mxGeometry x="400" y="260" width="40" height="40" as="geometry" />
        </mxCell>
        <mxCell id="Fl9HjCLfGaTyQj4dO3fx-8" value="pod3&lt;br&gt;10.0.0.32" style="rounded=0;whiteSpace=wrap;html=1;verticalAlign=top;labelPosition=center;verticalLabelPosition=middle;align=center;" parent="1" vertex="1">
          <mxGeometry x="800" y="100" width="200" height="120" as="geometry" />
        </mxCell>
        <mxCell id="Fl9HjCLfGaTyQj4dO3fx-9" value="pod2&lt;br&gt;10.0.0.31" style="rounded=0;whiteSpace=wrap;html=1;verticalAlign=top;labelPosition=center;verticalLabelPosition=middle;align=center;" parent="1" vertex="1">
          <mxGeometry x="560" y="100" width="200" height="120" as="geometry" />
        </mxCell>
        <mxCell id="Fl9HjCLfGaTyQj4dO3fx-10" value="node0&lt;br&gt;192.168.200.201" style="rounded=0;whiteSpace=wrap;html=1;align=right;verticalAlign=bottom;" parent="1" vertex="1">
          <mxGeometry x="560" y="260" width="440" height="180" as="geometry" />
        </mxCell>
        <mxCell id="Fl9HjCLfGaTyQj4dO3fx-11" value="veth0" style="ellipse;whiteSpace=wrap;html=1;aspect=fixed;fontSize=12;" parent="1" vertex="1">
          <mxGeometry x="640" y="260" width="40" height="40" as="geometry" />
        </mxCell>
        <mxCell id="Fl9HjCLfGaTyQj4dO3fx-12" value="eth0" style="ellipse;whiteSpace=wrap;html=1;aspect=fixed;fontSize=12;" parent="1" vertex="1">
          <mxGeometry x="640" y="180" width="40" height="40" as="geometry" />
        </mxCell>
        <mxCell id="Fl9HjCLfGaTyQj4dO3fx-13" value="eth0" style="ellipse;whiteSpace=wrap;html=1;aspect=fixed;fontSize=12;" parent="1" vertex="1">
          <mxGeometry x="880" y="180" width="40" height="40" as="geometry" />
        </mxCell>
        <mxCell id="Fl9HjCLfGaTyQj4dO3fx-14" style="edgeStyle=orthogonalEdgeStyle;shape=connector;rounded=0;orthogonalLoop=1;jettySize=auto;html=1;exitX=0.5;exitY=0;exitDx=0;exitDy=0;entryX=0.5;entryY=1;entryDx=0;entryDy=0;dashed=1;labelBackgroundColor=default;strokeColor=default;fontFamily=Helvetica;fontSize=11;fontColor=default;startArrow=oval;startFill=1;endArrow=classic;" parent="1" source="Fl9HjCLfGaTyQj4dO3fx-15" target="Fl9HjCLfGaTyQj4dO3fx-13" edge="1">
          <mxGeometry relative="1" as="geometry" />
        </mxCell>
        <mxCell id="Fl9HjCLfGaTyQj4dO3fx-15" value="veth1" style="ellipse;whiteSpace=wrap;html=1;aspect=fixed;fontSize=12;" parent="1" vertex="1">
          <mxGeometry x="880" y="260" width="40" height="40" as="geometry" />
        </mxCell>
        <mxCell id="wzYYbIqDJg1cKUNB3PUH-1" value="192.168.200.240:80" style="edgeStyle=orthogonalEdgeStyle;shape=connector;rounded=0;orthogonalLoop=1;jettySize=auto;html=1;exitX=1;exitY=0.5;exitDx=0;exitDy=0;entryX=0;entryY=0.5;entryDx=0;entryDy=0;dashed=1;labelBackgroundColor=default;strokeColor=default;fontFamily=Helvetica;fontSize=11;fontColor=default;startArrow=oval;startFill=1;endArrow=classic;" parent="1" source="Fl9HjCLfGaTyQj4dO3fx-18" target="f1MR66mOV5DU3q1V1j82-1" edge="1">
          <mxGeometry relative="1" as="geometry" />
        </mxCell>
        <mxCell id="Fl9HjCLfGaTyQj4dO3fx-18" value="client0&lt;br&gt;192.168.1.80" style="rounded=0;whiteSpace=wrap;html=1;verticalAlign=bottom;labelPosition=center;verticalLabelPosition=middle;align=left;" parent="1" vertex="1">
          <mxGeometry x="80" y="480" width="160" height="80" as="geometry" />
        </mxCell>
        <mxCell id="Fl9HjCLfGaTyQj4dO3fx-19" value="eth0" style="ellipse;whiteSpace=wrap;html=1;aspect=fixed;fontSize=12;" parent="1" vertex="1">
          <mxGeometry x="600" y="400" width="40" height="40" as="geometry" />
        </mxCell>
        <mxCell id="Fl9HjCLfGaTyQj4dO3fx-20" value="eth0" style="ellipse;whiteSpace=wrap;html=1;aspect=fixed;fontSize=12;" parent="1" vertex="1">
          <mxGeometry x="440" y="400" width="40" height="40" as="geometry" />
        </mxCell>
        <mxCell id="Fl9HjCLfGaTyQj4dO3fx-21" style="edgeStyle=orthogonalEdgeStyle;shape=connector;rounded=0;orthogonalLoop=1;jettySize=auto;html=1;exitX=0.5;exitY=0;exitDx=0;exitDy=0;entryX=0.5;entryY=1;entryDx=0;entryDy=0;dashed=1;labelBackgroundColor=default;strokeColor=default;fontFamily=Helvetica;fontSize=11;fontColor=default;startArrow=oval;startFill=1;endArrow=classic;" parent="1" source="Fl9HjCLfGaTyQj4dO3fx-22" target="Fl9HjCLfGaTyQj4dO3fx-15" edge="1">
          <mxGeometry relative="1" as="geometry" />
        </mxCell>
        <mxCell id="Fl9HjCLfGaTyQj4dO3fx-22" value="192.168.200.240&lt;br&gt;:80" style="rounded=1;whiteSpace=wrap;html=1;" parent="1" vertex="1">
          <mxGeometry x="780" y="400" width="100" height="40" as="geometry" />
        </mxCell>
        <mxCell id="Fl9HjCLfGaTyQj4dO3fx-28" value="Speaker&lt;br&gt;(MetalLB)" style="rounded=0;whiteSpace=wrap;html=1;verticalAlign=top;labelPosition=center;verticalLabelPosition=middle;align=center;" parent="1" vertex="1">
          <mxGeometry x="320" y="400" width="80" height="40" as="geometry" />
        </mxCell>
        <mxCell id="f1MR66mOV5DU3q1V1j82-3" value="192.168.200.240:80" style="edgeStyle=orthogonalEdgeStyle;shape=connector;rounded=0;orthogonalLoop=1;jettySize=auto;html=1;exitX=1;exitY=0.5;exitDx=0;exitDy=0;entryX=0.5;entryY=1;entryDx=0;entryDy=0;dashed=1;labelBackgroundColor=default;strokeColor=default;fontFamily=Helvetica;fontSize=11;fontColor=default;startArrow=oval;startFill=1;endArrow=classic;" parent="1" source="f1MR66mOV5DU3q1V1j82-1" target="Fl9HjCLfGaTyQj4dO3fx-22" edge="1">
          <mxGeometry relative="1" as="geometry" />
        </mxCell>
        <mxCell id="f1MR66mOV5DU3q1V1j82-1" value="router&lt;br&gt;192.168.200.1" style="rounded=0;whiteSpace=wrap;html=1;verticalAlign=bottom;labelPosition=center;verticalLabelPosition=middle;align=left;" parent="1" vertex="1">
          <mxGeometry x="400" y="480" width="160" height="80" as="geometry" />
        </mxCell>
        <mxCell id="cypmUb-ECZ2A5rltmCDB-1" value="192.168.200.240 -&amp;gt; 192.168.200.201" style="rounded=1;whiteSpace=wrap;html=1;fillColor=none;strokeColor=default;align=center;dashed=1;" parent="1" vertex="1">
          <mxGeometry x="410" y="490" width="140" height="30" as="geometry" />
        </mxCell>
        <mxCell id="jODSnHDksyiyXS4d9SNc-1" value="BGP Advertise (192.168.200.240 -&amp;gt; 192.168.200.201)" style="edgeStyle=orthogonalEdgeStyle;shape=connector;rounded=0;orthogonalLoop=1;jettySize=auto;html=1;exitX=0.5;exitY=1;exitDx=0;exitDy=0;entryX=0.5;entryY=0;entryDx=0;entryDy=0;dashed=1;labelBackgroundColor=default;strokeColor=default;fontFamily=Helvetica;fontSize=11;fontColor=default;startArrow=oval;startFill=1;endArrow=classic;" parent="1" source="Fl9HjCLfGaTyQj4dO3fx-27" target="cypmUb-ECZ2A5rltmCDB-1" edge="1">
          <mxGeometry relative="1" as="geometry" />
        </mxCell>
        <mxCell id="Fl9HjCLfGaTyQj4dO3fx-27" value="Speaker&lt;br&gt;(MetalLB)" style="rounded=0;whiteSpace=wrap;html=1;verticalAlign=top;labelPosition=center;verticalLabelPosition=middle;align=center;" parent="1" vertex="1">
          <mxGeometry x="680" y="400" width="80" height="40" as="geometry" />
        </mxCell>
      </root>
    </mxGraphModel>
  </diagram>
</mxfile>
